<?xml version="1.0" standalone="yes"?>

<svg version="1.1" viewBox="0.0 0.0 1196.283464566929 707.8110236220473" fill="none" stroke="none" stroke-linecap="square" stroke-miterlimit="10" xmlns="http://www.w3.org/2000/svg" xmlns:xlink="http://www.w3.org/1999/xlink"><clipPath id="p.0"><path d="m0 0l1196.2834 0l0 707.81104l-1196.2834 0l0 -707.81104z" clip-rule="nonzero"></path></clipPath><g clip-path="url(#p.0)"><path fill="#000000" fill-opacity="0.0" d="m0 0l1196.2834 0l0 707.81104l-1196.2834 0z" fill-rule="nonzero"></path><path fill="#000000" fill-opacity="0.0" d="m380.14304 42.46194l50.897644 0l0 53.322834l-50.897644 0z" fill-rule="nonzero"></path><path stroke="#000000" stroke-width="1.0" stroke-linejoin="round" stroke-linecap="butt" d="m380.14304 42.46194l50.897644 0l0 53.322834l-50.897644 0z" fill-rule="nonzero"></path><path fill="#000000" d="m402.70123 68.06211l2.171875 0q2.046875 -0.03125 3.21875 -1.078125q1.171875 -1.046875 1.171875 -2.828125q0 -4.000004 -3.984375 -4.000004q-1.875 0 -3.0 1.078125q-1.109375 1.0625 -1.109375 2.8281288l-2.890625 0q0 -2.7031288 1.96875 -4.484379q1.984375 -1.796875 5.03125 -1.796875q3.21875 0 5.046875 1.703125q1.828125 1.703125 1.828125 4.734379q0 1.484375 -0.96875 2.875q-0.953125 1.390625 -2.609375 2.078125q1.875 0.59375 2.890625 1.96875q1.03125 1.375 1.03125 3.359375q0 3.0625 -2.0 4.859375q-2.0 1.796875 -5.203125 1.796875q-3.203125 0 -5.21875 -1.734375q-2.0 -1.734375 -2.0 -4.578125l2.90625 0q0 1.796875 1.171875 2.875q1.171875 1.078125 3.140625 1.078125q2.09375 0 3.203125 -1.09375q1.109375 -1.09375 1.109375 -3.140625q0 -1.984375 -1.21875 -3.046875q-1.21875 -1.0625 -3.515625 -1.09375l-2.171875 0l0 -2.359375z" fill-rule="nonzero"></path><path fill="#000000" fill-opacity="0.0" d="m431.04068 42.46194l50.897644 0l0 53.322834l-50.897644 0z" fill-rule="nonzero"></path><path stroke="#000000" stroke-width="1.0" stroke-linejoin="round" stroke-linecap="butt" d="m431.04068 42.46194l50.897644 0l0 53.322834l-50.897644 0z" fill-rule="nonzero"></path><path fill="#000000" d="m450.72388 69.43711l1.15625 -11.343754l11.65625 0l0 2.671875l-9.203125 0l-0.6875 6.203129q1.671875 -0.984375 3.796875 -0.984375q3.109375 0 4.9375 2.0625q1.828125 2.046875 1.828125 5.546875q0 3.515625 -1.90625 5.546875q-1.890625 2.015625 -5.296875 2.015625q-3.015625 0 -4.921875 -1.671875q-1.90625 -1.671875 -2.171875 -4.625l2.734375 0q0.265625 1.953125 1.390625 2.953125q1.125 0.984375 2.96875 0.984375q2.015625 0 3.15625 -1.375q1.15625 -1.375 1.15625 -3.796875q0 -2.28125 -1.25 -3.65625q-1.234375 -1.390625 -3.296875 -1.390625q-1.890625 0 -2.96875 0.828125l-0.765625 0.625l-2.3125 -0.59375z" fill-rule="nonzero"></path><path fill="#000000" fill-opacity="0.0" d="m481.93832 42.46194l50.897614 0l0 53.322834l-50.897614 0z" fill-rule="nonzero"></path><path stroke="#000000" stroke-width="1.0" stroke-linejoin="round" stroke-linecap="butt" d="m481.93832 42.46194l50.897614 0l0 53.322834l-50.897614 0z" fill-rule="nonzero"></path><path fill="#000000" d="m509.7934 80.84336l-2.90625 0l0 -19.265629l-5.828125 2.140625l0 -2.625l8.28125 -3.109375l0.453125 0l0 22.859379z" fill-rule="nonzero"></path><path fill="#000000" fill-opacity="0.0" d="m532.83594 42.46194l50.897644 0l0 53.322834l-50.897644 0z" fill-rule="nonzero"></path><path stroke="#000000" stroke-width="1.0" stroke-linejoin="round" stroke-linecap="butt" d="m532.83594 42.46194l50.897644 0l0 53.322834l-50.897644 0z" fill-rule="nonzero"></path><path fill="#000000" d="m562.5348 58.077732l0 2.453125l-0.53125 0q-3.375 0.0625 -5.375 2.0q-2.0 1.9375038 -2.3125 5.453129q1.796875 -2.0625 4.90625 -2.0625q2.96875 0 4.734375 2.09375q1.78125 2.09375 1.78125 5.40625q0 3.515625 -1.921875 5.625q-1.90625 2.109375 -5.125 2.109375q-3.265625 0 -5.296875 -2.5q-2.03125 -2.515625 -2.03125 -6.46875l0 -1.109375q0 -6.28125 2.671875 -9.593754q2.6875 -3.328125 7.984375 -3.40625l0.515625 0zm-3.796875 10.250004q-1.484375 0 -2.734375 0.890625q-1.25 0.890625 -1.734375 2.234375l0 1.0625q0 2.8125 1.265625 4.53125q1.265625 1.71875 3.15625 1.71875q1.953125 0 3.0625 -1.4375q1.125 -1.4375 1.125 -3.765625q0 -2.34375 -1.140625 -3.78125q-1.125 -1.453125 -3.0 -1.453125z" fill-rule="nonzero"></path><path fill="#000000" fill-opacity="0.0" d="m583.7336 42.46194l50.897644 0l0 53.322834l-50.897644 0z" fill-rule="nonzero"></path><path stroke="#000000" stroke-width="1.0" stroke-linejoin="round" stroke-linecap="butt" d="m583.7336 42.46194l50.897644 0l0 53.322834l-50.897644 0z" fill-rule="nonzero"></path><path fill="#000000" d="m616.99493 80.84336l-14.90625 0l0 -2.078125l7.875 -8.75q1.75 -1.984375 2.40625 -3.21875q0.671875 -1.25 0.671875 -2.578125q0 -1.7812538 -1.078125 -2.9218788q-1.078125 -1.140625 -2.875 -1.140625q-2.15625 0 -3.359375 1.234375q-1.1875 1.21875 -1.1875 3.4062538l-2.890625 0q0 -3.1406288 2.015625 -5.078129q2.03125 -1.9375 5.421875 -1.9375q3.171875 0 5.015625 1.671875q1.84375 1.65625 1.84375 4.421875q0 3.3593788 -4.28125 8.000004l-6.09375 6.609375l11.421875 0l0 2.359375z" fill-rule="nonzero"></path><path fill="#000000" fill-opacity="0.0" d="m634.6312 42.46194l50.897644 0l0 53.322834l-50.897644 0z" fill-rule="nonzero"></path><path stroke="#000000" stroke-width="1.0" stroke-linejoin="round" stroke-linecap="butt" d="m634.6312 42.46194l50.897644 0l0 53.322834l-50.897644 0z" fill-rule="nonzero"></path><path fill="#000000" d="m667.6738 59.718357l-9.421875 21.125004l-3.03125 0l9.390625 -20.375004l-12.3125 0l0 -2.375l15.375 0l0 1.625z" fill-rule="nonzero"></path><path fill="#000000" fill-opacity="0.0" d="m685.5289 42.46194l50.897644 0l0 53.322834l-50.897644 0z" fill-rule="nonzero"></path><path stroke="#000000" stroke-width="4.0" stroke-linejoin="round" stroke-linecap="butt" d="m685.5289 42.46194l50.897644 0l0 53.322834l-50.897644 0z" fill-rule="nonzero"></path><path fill="#000000" d="m716.08704 73.202736l3.15625 0l0 2.359375l-3.15625 0l0 5.28125l-2.90625 0l0 -5.28125l-10.359375 0l0 -1.703125l10.1875 -15.765629l3.078125 0l0 15.109379zm-9.984375 0l7.078125 0l0 -11.156254l-0.34375 0.625l-6.734375 10.531254z" fill-rule="nonzero"></path><path fill="#000000" fill-opacity="0.0" d="m558.2848 112.7664l0.03149414 55.74803" fill-rule="nonzero"></path><path stroke="#000000" stroke-width="1.0" stroke-linejoin="round" stroke-linecap="butt" d="m558.2848 112.7664l0.028076172 49.74803" fill-rule="evenodd"></path><path fill="#000000" stroke="#000000" stroke-width="1.0" stroke-linecap="butt" d="m556.66113 162.51537l1.6542969 4.5371704l1.6491699 -4.539032z" fill-rule="evenodd"></path><path fill="#000000" fill-opacity="0.0" d="m380.14304 185.49606l50.897644 0l0 53.32283l-50.897644 0z" fill-rule="nonzero"></path><path stroke="#000000" stroke-width="1.0" stroke-linejoin="round" stroke-linecap="butt" d="m380.14304 185.49606l50.897644 0l0 53.32283l-50.897644 0z" fill-rule="nonzero"></path><path fill="#000000" d="m402.70123 211.09622l2.171875 0q2.046875 -0.03125 3.21875 -1.078125q1.171875 -1.046875 1.171875 -2.828125q0 -4.0 -3.984375 -4.0q-1.875 0 -3.0 1.078125q-1.109375 1.0625 -1.109375 2.828125l-2.890625 0q0 -2.703125 1.96875 -4.484375q1.984375 -1.796875 5.03125 -1.796875q3.21875 0 5.046875 1.703125q1.828125 1.703125 1.828125 4.734375q0 1.484375 -0.96875 2.875q-0.953125 1.390625 -2.609375 2.078125q1.875 0.59375 2.890625 1.96875q1.03125 1.375 1.03125 3.359375q0 3.0625 -2.0 4.859375q-2.0 1.796875 -5.203125 1.796875q-3.203125 0 -5.21875 -1.734375q-2.0 -1.734375 -2.0 -4.578125l2.90625 0q0 1.796875 1.171875 2.875q1.171875 1.078125 3.140625 1.078125q2.09375 0 3.203125 -1.09375q1.109375 -1.09375 1.109375 -3.140625q0 -1.984375 -1.21875 -3.046875q-1.21875 -1.0625 -3.515625 -1.09375l-2.171875 0l0 -2.359375z" fill-rule="nonzero"></path><path fill="#000000" fill-opacity="0.0" d="m431.04068 185.49606l50.897644 0l0 53.32283l-50.897644 0z" fill-rule="nonzero"></path><path stroke="#000000" stroke-width="1.0" stroke-linejoin="round" stroke-linecap="butt" d="m431.04068 185.49606l50.897644 0l0 53.32283l-50.897644 0z" fill-rule="nonzero"></path><path fill="#000000" d="m458.89575 223.87747l-2.90625 0l0 -19.265625l-5.828125 2.140625l0 -2.625l8.28125 -3.109375l0.453125 0l0 22.859375z" fill-rule="nonzero"></path><path fill="#000000" fill-opacity="0.0" d="m481.93832 185.49606l50.897614 0l0 53.32283l-50.897614 0z" fill-rule="nonzero"></path><path stroke="#000000" stroke-width="1.0" stroke-linejoin="round" stroke-linecap="butt" d="m481.93832 185.49606l50.897614 0l0 53.32283l-50.897614 0z" fill-rule="nonzero"></path><path fill="#000000" d="m515.19965 223.87747l-14.90625 0l0 -2.078125l7.875 -8.75q1.75 -1.984375 2.40625 -3.21875q0.671875 -1.25 0.671875 -2.578125q0 -1.78125 -1.078125 -2.921875q-1.078125 -1.140625 -2.875 -1.140625q-2.15625 0 -3.359375 1.234375q-1.1875 1.21875 -1.1875 3.40625l-2.890625 0q0 -3.140625 2.015625 -5.078125q2.03125 -1.9375 5.421875 -1.9375q3.171875 0 5.015625 1.671875q1.84375 1.65625 1.84375 4.421875q0 3.359375 -4.28125 8.0l-6.09375 6.609375l11.421875 0l0 2.359375z" fill-rule="nonzero"></path><path fill="#000000" fill-opacity="0.0" d="m532.83594 185.49606l50.897644 0l0 53.32283l-50.897644 0z" fill-rule="nonzero"></path><path stroke="#000000" stroke-width="4.0" stroke-linejoin="round" stroke-linecap="butt" d="m532.83594 185.49606l50.897644 0l0 53.32283l-50.897644 0z" fill-rule="nonzero"></path><path fill="#000000" d="m563.39417 216.23685l3.15625 0l0 2.359375l-3.15625 0l0 5.28125l-2.90625 0l0 -5.28125l-10.359375 0l0 -1.703125l10.1875 -15.765625l3.078125 0l0 15.109375zm-9.984375 0l7.078125 0l0 -11.15625l-0.34375 0.625l-6.734375 10.53125z" fill-rule="nonzero"></path><path fill="#000000" fill-opacity="0.0" d="m583.7336 185.49606l50.897644 0l0 53.32283l-50.897644 0z" fill-rule="nonzero"></path><path stroke="#000000" stroke-width="1.0" stroke-linejoin="round" stroke-linecap="butt" d="m583.7336 185.49606l50.897644 0l0 53.32283l-50.897644 0z" fill-rule="nonzero"></path><path fill="#000000" d="m603.4168 212.47122l1.15625 -11.34375l11.65625 0l0 2.671875l-9.203125 0l-0.6875 6.203125q1.671875 -0.984375 3.796875 -0.984375q3.109375 0 4.9375 2.0625q1.828125 2.046875 1.828125 5.546875q0 3.515625 -1.90625 5.546875q-1.890625 2.015625 -5.296875 2.015625q-3.015625 0 -4.921875 -1.671875q-1.90625 -1.671875 -2.171875 -4.625l2.734375 0q0.265625 1.953125 1.390625 2.953125q1.125 0.984375 2.96875 0.984375q2.015625 0 3.15625 -1.375q1.15625 -1.375 1.15625 -3.796875q0 -2.28125 -1.25 -3.65625q-1.234375 -1.390625 -3.296875 -1.390625q-1.890625 0 -2.96875 0.828125l-0.765625 0.625l-2.3125 -0.59375z" fill-rule="nonzero"></path><path fill="#000000" fill-opacity="0.0" d="m634.6312 185.49606l50.897644 0l0 53.32283l-50.897644 0z" fill-rule="nonzero"></path><path stroke="#000000" stroke-width="1.0" stroke-linejoin="round" stroke-linecap="butt" d="m634.6312 185.49606l50.897644 0l0 53.32283l-50.897644 0z" fill-rule="nonzero"></path><path fill="#000000" d="m667.6738 202.75247l-9.421875 21.125l-3.03125 0l9.390625 -20.375l-12.3125 0l0 -2.375l15.375 0l0 1.625z" fill-rule="nonzero"></path><path fill="#000000" fill-opacity="0.0" d="m685.5289 185.49606l50.897644 0l0 53.32283l-50.897644 0z" fill-rule="nonzero"></path><path stroke="#000000" stroke-width="1.0" stroke-linejoin="round" stroke-linecap="butt" d="m685.5289 185.49606l50.897644 0l0 53.32283l-50.897644 0z" fill-rule="nonzero"></path><path fill="#000000" d="m715.22766 201.11185l0 2.453125l-0.53125 0q-3.375 0.0625 -5.375 2.0q-2.0 1.9375 -2.3125 5.453125q1.796875 -2.0625 4.90625 -2.0625q2.96875 0 4.734375 2.09375q1.78125 2.09375 1.78125 5.40625q0 3.515625 -1.921875 5.625q-1.90625 2.109375 -5.125 2.109375q-3.265625 0 -5.296875 -2.5q-2.03125 -2.515625 -2.03125 -6.46875l0 -1.109375q0 -6.28125 2.671875 -9.59375q2.6875 -3.328125 7.984375 -3.40625l0.515625 0zm-3.796875 10.25q-1.484375 0 -2.734375 0.890625q-1.25 0.890625 -1.734375 2.234375l0 1.0625q0 2.8125 1.265625 4.53125q1.265625 1.71875 3.15625 1.71875q1.953125 0 3.0625 -1.4375q1.125 -1.4375 1.125 -3.765625q0 -2.34375 -1.140625 -3.78125q-1.125 -1.453125 -3.0 -1.453125z" fill-rule="nonzero"></path><path fill="#000000" fill-opacity="0.0" d="m456.47375 257.01312l0.03149414 55.748047" fill-rule="nonzero"></path><path stroke="#000000" stroke-width="1.0" stroke-linejoin="round" stroke-linecap="butt" d="m456.47375 257.01312l0.028076172 49.748047" fill-rule="evenodd"></path><path fill="#000000" stroke="#000000" stroke-width="1.0" stroke-linecap="butt" d="m454.85013 306.7621l1.6542969 4.5371704l1.6491699 -4.539032z" fill-rule="evenodd"></path><path fill="#000000" fill-opacity="0.0" d="m380.14304 328.53018l50.897644 0l0 53.322845l-50.897644 0z" fill-rule="nonzero"></path><path stroke="#000000" stroke-width="1.0" stroke-linejoin="round" stroke-linecap="butt" d="m380.14304 328.53018l50.897644 0l0 53.322845l-50.897644 0z" fill-rule="nonzero"></path><path fill="#000000" d="m402.70123 354.13034l2.171875 0q2.046875 -0.03125 3.21875 -1.078125q1.171875 -1.046875 1.171875 -2.828125q0 -4.0 -3.984375 -4.0q-1.875 0 -3.0 1.078125q-1.109375 1.0625 -1.109375 2.828125l-2.890625 0q0 -2.703125 1.96875 -4.484375q1.984375 -1.796875 5.03125 -1.796875q3.21875 0 5.046875 1.703125q1.828125 1.703125 1.828125 4.734375q0 1.484375 -0.96875 2.875q-0.953125 1.390625 -2.609375 2.078125q1.875 0.59375 2.890625 1.96875q1.03125 1.375 1.03125 3.359375q0 3.0625 -2.0 4.859375q-2.0 1.796875 -5.203125 1.796875q-3.203125 0 -5.21875 -1.734375q-2.0 -1.734375 -2.0 -4.578125l2.90625 0q0 1.796875 1.171875 2.875q1.171875 1.078125 3.140625 1.078125q2.09375 0 3.203125 -1.09375q1.109375 -1.09375 1.109375 -3.140625q0 -1.984375 -1.21875 -3.046875q-1.21875 -1.0625 -3.515625 -1.09375l-2.171875 0l0 -2.359375z" fill-rule="nonzero"></path><path fill="#000000" fill-opacity="0.0" d="m431.04068 328.53018l50.897644 0l0 53.322845l-50.897644 0z" fill-rule="nonzero"></path><path stroke="#000000" stroke-width="1.0" stroke-linejoin="round" stroke-linecap="butt" d="m431.04068 328.53018l50.897644 0l0 53.322845l-50.897644 0z" fill-rule="nonzero"></path><path fill="#000000" d="m458.89575 366.9116l-2.90625 0l0 -19.265625l-5.828125 2.140625l0 -2.625l8.28125 -3.109375l0.453125 0l0 22.859375z" fill-rule="nonzero"></path><path fill="#000000" fill-opacity="0.0" d="m481.93832 328.53018l50.897614 0l0 53.322845l-50.897614 0z" fill-rule="nonzero"></path><path stroke="#000000" stroke-width="4.0" stroke-linejoin="round" stroke-linecap="butt" d="m481.93832 328.53018l50.897614 0l0 53.322845l-50.897614 0z" fill-rule="nonzero"></path><path fill="#000000" d="m515.19965 366.9116l-14.90625 0l0 -2.078125l7.875 -8.75q1.75 -1.984375 2.40625 -3.21875q0.671875 -1.25 0.671875 -2.578125q0 -1.78125 -1.078125 -2.921875q-1.078125 -1.140625 -2.875 -1.140625q-2.15625 0 -3.359375 1.234375q-1.1875 1.21875 -1.1875 3.40625l-2.890625 0q0 -3.140625 2.015625 -5.078125q2.03125 -1.9375 5.421875 -1.9375q3.171875 0 5.015625 1.671875q1.84375 1.65625 1.84375 4.421875q0 3.359375 -4.28125 8.0l-6.09375 6.609375l11.421875 0l0 2.359375z" fill-rule="nonzero"></path><path fill="#000000" fill-opacity="0.0" d="m583.7336 328.53018l50.897644 0l0 53.322845l-50.897644 0z" fill-rule="nonzero"></path><path stroke="#000000" stroke-width="1.0" stroke-linejoin="round" stroke-linecap="butt" d="m583.7336 328.53018l50.897644 0l0 53.322845l-50.897644 0z" fill-rule="nonzero"></path><path fill="#000000" d="m603.4168 355.50534l1.15625 -11.34375l11.65625 0l0 2.671875l-9.203125 0l-0.6875 6.203125q1.671875 -0.984375 3.796875 -0.984375q3.109375 0 4.9375 2.0625q1.828125 2.046875 1.828125 5.546875q0 3.515625 -1.90625 5.546875q-1.890625 2.015625 -5.296875 2.015625q-3.015625 0 -4.921875 -1.671875q-1.90625 -1.671875 -2.171875 -4.625l2.734375 0q0.265625 1.953125 1.390625 2.953125q1.125 0.984375 2.96875 0.984375q2.015625 0 3.15625 -1.375q1.15625 -1.375 1.15625 -3.796875q0 -2.28125 -1.25 -3.65625q-1.234375 -1.390625 -3.296875 -1.390625q-1.890625 0 -2.96875 0.828125l-0.765625 0.625l-2.3125 -0.59375z" fill-rule="nonzero"></path><path fill="#000000" fill-opacity="0.0" d="m634.6312 328.53018l50.897644 0l0 53.322845l-50.897644 0z" fill-rule="nonzero"></path><path stroke="#000000" stroke-width="1.0" stroke-linejoin="round" stroke-linecap="butt" d="m634.6312 328.53018l50.897644 0l0 53.322845l-50.897644 0z" fill-rule="nonzero"></path><path fill="#000000" d="m667.6738 345.7866l-9.421875 21.125l-3.03125 0l9.390625 -20.375l-12.3125 0l0 -2.375l15.375 0l0 1.625z" fill-rule="nonzero"></path><path fill="#000000" fill-opacity="0.0" d="m685.5289 328.53018l50.897644 0l0 53.322845l-50.897644 0z" fill-rule="nonzero"></path><path stroke="#000000" stroke-width="4.0" stroke-linejoin="round" stroke-linecap="butt" d="m685.5289 328.53018l50.897644 0l0 53.322845l-50.897644 0z" fill-rule="nonzero"></path><path fill="#000000" d="m715.22766 344.14597l0 2.453125l-0.53125 0q-3.375 0.0625 -5.375 2.0q-2.0 1.9375 -2.3125 5.453125q1.796875 -2.0625 4.90625 -2.0625q2.96875 0 4.734375 2.09375q1.78125 2.09375 1.78125 5.40625q0 3.515625 -1.921875 5.625q-1.90625 2.109375 -5.125 2.109375q-3.265625 0 -5.296875 -2.5q-2.03125 -2.515625 -2.03125 -6.46875l0 -1.109375q0 -6.28125 2.671875 -9.59375q2.6875 -3.328125 7.984375 -3.40625l0.515625 0zm-3.796875 10.25q-1.484375 0 -2.734375 0.890625q-1.25 0.890625 -1.734375 2.234375l0 1.0625q0 2.8125 1.265625 4.53125q1.265625 1.71875 3.15625 1.71875q1.953125 0 3.0625 -1.4375q1.125 -1.4375 1.125 -3.765625q0 -2.34375 -1.140625 -3.78125q-1.125 -1.453125 -3.0 -1.453125z" fill-rule="nonzero"></path><path fill="#000000" fill-opacity="0.0" d="m654.06696 257.01312l0.03149414 55.748047" fill-rule="nonzero"></path><path stroke="#000000" stroke-width="1.0" stroke-linejoin="round" stroke-linecap="butt" d="m654.06696 257.01312l0.028076172 49.748047" fill-rule="evenodd"></path><path fill="#000000" stroke="#000000" stroke-width="1.0" stroke-linecap="butt" d="m652.4433 306.7621l1.6542969 4.5371704l1.6491699 -4.539032z" fill-rule="evenodd"></path><path fill="#000000" fill-opacity="0.0" d="m456.47375 403.6614l0.03149414 55.748047" fill-rule="nonzero"></path><path stroke="#000000" stroke-width="1.0" stroke-linejoin="round" stroke-linecap="butt" d="m456.47375 403.6614l0.028076172 49.748047" fill-rule="evenodd"></path><path fill="#000000" stroke="#000000" stroke-width="1.0" stroke-linecap="butt" d="m454.85013 453.41037l1.6542969 4.5371704l1.6491699 -4.539032z" fill-rule="evenodd"></path><path fill="#000000" fill-opacity="0.0" d="m654.06696 403.6614l0.03149414 55.748047" fill-rule="nonzero"></path><path stroke="#000000" stroke-width="1.0" stroke-linejoin="round" stroke-linecap="butt" d="m654.06696 403.6614l0.028076172 49.748047" fill-rule="evenodd"></path><path fill="#000000" stroke="#000000" stroke-width="1.0" stroke-linecap="butt" d="m652.4433 453.41037l1.6542969 4.5371704l1.6491699 -4.539032z" fill-rule="evenodd"></path><path fill="#000000" fill-opacity="0.0" d="m380.14304 471.5643l50.897644 0l0 53.322845l-50.897644 0z" fill-rule="nonzero"></path><path stroke="#000000" stroke-width="1.0" stroke-linejoin="round" stroke-linecap="butt" d="m380.14304 471.5643l50.897644 0l0 53.322845l-50.897644 0z" fill-rule="nonzero"></path><path fill="#000000" d="m407.9981 509.9457l-2.90625 0l0 -19.265625l-5.828125 2.140625l0 -2.625l8.28125 -3.109375l0.453125 0l0 22.859375z" fill-rule="nonzero"></path><path fill="#000000" fill-opacity="0.0" d="m431.04068 471.5643l50.897644 0l0 53.322845l-50.897644 0z" fill-rule="nonzero"></path><path stroke="#000000" stroke-width="4.0" stroke-linejoin="round" stroke-linecap="butt" d="m431.04068 471.5643l50.897644 0l0 53.322845l-50.897644 0z" fill-rule="nonzero"></path><path fill="#000000" d="m464.302 509.9457l-14.90625 0l0 -2.078125l7.875 -8.75q1.75 -1.984375 2.40625 -3.21875q0.671875 -1.25 0.671875 -2.578125q0 -1.78125 -1.078125 -2.921875q-1.078125 -1.140625 -2.875 -1.140625q-2.15625 0 -3.359375 1.234375q-1.1875 1.21875 -1.1875 3.40625l-2.890625 0q0 -3.140625 2.015625 -5.078125q2.03125 -1.9375 5.421875 -1.9375q3.171875 0 5.015625 1.671875q1.84375 1.65625 1.84375 4.421875q0 3.359375 -4.28125 8.0l-6.09375 6.609375l11.421875 0l0 2.359375z" fill-rule="nonzero"></path><path fill="#000000" fill-opacity="0.0" d="m481.93832 471.5643l50.897614 0l0 53.322845l-50.897614 0z" fill-rule="nonzero"></path><path stroke="#000000" stroke-width="1.0" stroke-linejoin="round" stroke-linecap="butt" d="m481.93832 471.5643l50.897614 0l0 53.322845l-50.897614 0z" fill-rule="nonzero"></path><path fill="#000000" d="m504.49652 497.16446l2.171875 0q2.046875 -0.03125 3.21875 -1.078125q1.171875 -1.046875 1.171875 -2.828125q0 -4.0 -3.984375 -4.0q-1.875 0 -3.0 1.078125q-1.109375 1.0625 -1.109375 2.828125l-2.890625 0q0 -2.703125 1.96875 -4.484375q1.984375 -1.796875 5.03125 -1.796875q3.21875 0 5.046875 1.703125q1.828125 1.703125 1.828125 4.734375q0 1.484375 -0.96875 2.875q-0.953125 1.390625 -2.609375 2.078125q1.875 0.59375 2.890625 1.96875q1.03125 1.375 1.03125 3.359375q0 3.0625 -2.0 4.859375q-2.0 1.796875 -5.203125 1.796875q-3.203125 0 -5.21875 -1.734375q-2.0 -1.734375 -2.0 -4.578125l2.90625 0q0 1.796875 1.171875 2.875q1.171875 1.078125 3.140625 1.078125q2.09375 0 3.203125 -1.09375q1.109375 -1.09375 1.109375 -3.140625q0 -1.984375 -1.21875 -3.046875q-1.21875 -1.0625 -3.515625 -1.09375l-2.171875 0l0 -2.359375z" fill-rule="nonzero"></path><path fill="#000000" fill-opacity="0.0" d="m577.7362 471.5643l50.897644 0l0 53.322845l-50.897644 0z" fill-rule="nonzero"></path><path stroke="#000000" stroke-width="1.0" stroke-linejoin="round" stroke-linecap="butt" d="m577.7362 471.5643l50.897644 0l0 53.322845l-50.897644 0z" fill-rule="nonzero"></path><path fill="#000000" d="m597.41943 498.53946l1.15625 -11.34375l11.65625 0l0 2.671875l-9.203125 0l-0.6875 6.203125q1.671875 -0.984375 3.796875 -0.984375q3.109375 0 4.9375 2.0625q1.828125 2.046875 1.828125 5.546875q0 3.515625 -1.90625 5.546875q-1.890625 2.015625 -5.296875 2.015625q-3.015625 0 -4.921875 -1.671875q-1.90625 -1.671875 -2.171875 -4.625l2.734375 0q0.265625 1.953125 1.390625 2.953125q1.125 0.984375 2.96875 0.984375q2.015625 0 3.15625 -1.375q1.15625 -1.375 1.15625 -3.796875q0 -2.28125 -1.25 -3.65625q-1.234375 -1.390625 -3.296875 -1.390625q-1.890625 0 -2.96875 0.828125l-0.765625 0.625l-2.3125 -0.59375z" fill-rule="nonzero"></path><path fill="#000000" fill-opacity="0.0" d="m628.63385 471.5643l50.897644 0l0 53.322845l-50.897644 0z" fill-rule="nonzero"></path><path stroke="#000000" stroke-width="4.0" stroke-linejoin="round" stroke-linecap="butt" d="m628.63385 471.5643l50.897644 0l0 53.322845l-50.897644 0z" fill-rule="nonzero"></path><path fill="#000000" d="m658.3327 487.18008l0 2.453125l-0.53125 0q-3.375 0.0625 -5.375 2.0q-2.0 1.9375 -2.3125 5.453125q1.796875 -2.0625 4.90625 -2.0625q2.96875 0 4.734375 2.09375q1.78125 2.09375 1.78125 5.40625q0 3.515625 -1.921875 5.625q-1.90625 2.109375 -5.125 2.109375q-3.265625 0 -5.296875 -2.5q-2.03125 -2.515625 -2.03125 -6.46875l0 -1.109375q0 -6.28125 2.671875 -9.59375q2.6875 -3.328125 7.984375 -3.40625l0.515625 0zm-3.796875 10.25q-1.484375 0 -2.734375 0.890625q-1.25 0.890625 -1.734375 2.234375l0 1.0625q0 2.8125 1.265625 4.53125q1.265625 1.71875 3.15625 1.71875q1.953125 0 3.0625 -1.4375q1.125 -1.4375 1.125 -3.765625q0 -2.34375 -1.140625 -3.78125q-1.125 -1.453125 -3.0 -1.453125z" fill-rule="nonzero"></path><path fill="#000000" fill-opacity="0.0" d="m679.5315 471.5643l50.897644 0l0 53.322845l-50.897644 0z" fill-rule="nonzero"></path><path stroke="#000000" stroke-width="1.0" stroke-linejoin="round" stroke-linecap="butt" d="m679.5315 471.5643l50.897644 0l0 53.322845l-50.897644 0z" fill-rule="nonzero"></path><path fill="#000000" d="m712.57404 488.8207l-9.421875 21.125l-3.03125 0l9.390625 -20.375l-12.3125 0l0 -2.375l15.375 0l0 1.625z" fill-rule="nonzero"></path><path fill="#000000" fill-opacity="0.0" d="m405.5761 545.3779l0.03149414 55.748047" fill-rule="nonzero"></path><path stroke="#000000" stroke-width="1.0" stroke-linejoin="round" stroke-linecap="butt" d="m405.5761 545.3779l0.02810669 49.748047" fill-rule="evenodd"></path><path fill="#000000" stroke="#000000" stroke-width="1.0" stroke-linecap="butt" d="m403.95248 595.1269l1.6542969 4.5371704l1.6491699 -4.5390015z" fill-rule="evenodd"></path><path fill="#000000" fill-opacity="0.0" d="m507.3714 545.3779l0.03149414 55.748047" fill-rule="nonzero"></path><path stroke="#000000" stroke-width="1.0" stroke-linejoin="round" stroke-linecap="butt" d="m507.3714 545.3779l0.028076172 49.748047" fill-rule="evenodd"></path><path fill="#000000" stroke="#000000" stroke-width="1.0" stroke-linecap="butt" d="m505.74777 595.1269l1.6542969 4.5371704l1.6491699 -4.5390015z" fill-rule="evenodd"></path><path fill="#000000" fill-opacity="0.0" d="m561.1207 112.7664l96.12598 0l0 35.905518l-96.12598 0z" fill-rule="nonzero"></path><path fill="#000000" d="m585.2301 136.82204q0 2.515625 -0.84375 4.390625q-0.84375 1.859375 -2.390625 2.84375q-1.546875 0.984375 -3.609375 0.984375q-2.015625 0 -3.578125 -0.984375q-1.5625 -1.0 -2.421875 -2.828125q-0.859375 -1.84375 -0.875 -4.25l0 -1.234375q0 -2.453125 0.84375 -4.34375q0.859375 -1.890625 2.421875 -2.890625q1.5625 -1.0000076 3.578125 -1.0000076q2.0625 0 3.625 1.0000076q1.5625 0.984375 2.40625 2.859375q0.84375 1.875 0.84375 4.375l0 1.078125zm-2.234375 -1.09375q0 -3.046875 -1.21875 -4.65625q-1.21875 -1.625 -3.421875 -1.625q-2.125 0 -3.359375 1.625q-1.21875 1.609375 -1.25 4.5l0 1.25q0 2.9375 1.234375 4.625q1.234375 1.6875 3.40625 1.6875q2.171875 0 3.359375 -1.59375q1.203125 -1.59375 1.25 -4.546875l0 -1.265625zm5.1875 2.15625q0 -2.65625 0.703125 -5.09375q0.71875 -2.4375 2.125 -4.421875q1.40625 -2.0000076 2.90625 -2.8125076l0.453125 1.421875q-1.71875 1.3125076 -2.8125 4.0156326q-1.09375 2.6875 -1.203125 6.03125l0 1.0q0 4.515625 1.640625 7.84375q1.0 2.0 2.375 3.125l-0.453125 1.328125q-1.546875 -0.875 -2.96875 -2.90625q-2.765625 -4.0 -2.765625 -9.53125zm10.328125 -5.765625l0.078125 1.59375q1.453125 -1.828125 3.796875 -1.828125q4.015625 0 4.046875 4.546875l0 8.375l-2.15625 0l0 -8.390625q-0.015625 -1.375 -0.640625 -2.03125q-0.609375 -0.65625 -1.90625 -0.65625q-1.0625 0 -1.859375 0.5625q-0.796875 0.5625 -1.234375 1.484375l0 9.03125l-2.171875 0l0 -12.6875l2.046875 0zm16.195312 5.875q0 2.609375 -0.6875 5.015625q-0.671875 2.390625 -2.09375 4.421875q-1.40625 2.03125 -2.953125 2.890625l-0.453125 -1.328125q1.796875 -1.390625 2.890625 -4.296875q1.09375 -2.921875 1.125 -6.46875l0 -0.375q0 -2.453125 -0.515625 -4.5625q-0.515625 -2.125 -1.4375 -3.796875q-0.921875 -1.6875076 -2.0625 -2.6250076l0.453125 -1.3125q1.546875 0.84375 2.9375 2.8593826q1.40625 2.0 2.09375 4.421875q0.703125 2.40625 0.703125 5.15625z" fill-rule="nonzero"></path><path fill="#000000" fill-opacity="0.0" d="m456.47507 401.19553l96.12601 0l0 35.905518l-96.12601 0z" fill-rule="nonzero"></path><path fill="#000000" d="m480.58444 425.25116q0 2.515625 -0.84375 4.390625q-0.84375 1.859375 -2.390625 2.84375q-1.546875 0.984375 -3.609375 0.984375q-2.015625 0 -3.578125 -0.984375q-1.5625 -1.0 -2.421875 -2.828125q-0.859375 -1.84375 -0.875 -4.25l0 -1.234375q0 -2.453125 0.84375 -4.34375q0.859375 -1.890625 2.421875 -2.890625q1.5625 -1.0 3.578125 -1.0q2.0625 0 3.625 1.0q1.5625 0.984375 2.40625 2.859375q0.84375 1.875 0.84375 4.375l0 1.078125zm-2.234375 -1.09375q0 -3.046875 -1.21875 -4.65625q-1.21875 -1.625 -3.421875 -1.625q-2.125 0 -3.359375 1.625q-1.21875 1.609375 -1.25 4.5l0 1.25q0 2.9375 1.234375 4.625q1.234375 1.6875 3.40625 1.6875q2.171875 0 3.359375 -1.59375q1.203125 -1.59375 1.25 -4.546875l0 -1.265625zm5.1875 2.15625q0 -2.65625 0.703125 -5.09375q0.71875 -2.4375 2.125 -4.421875q1.40625 -2.0 2.90625 -2.8125l0.453125 1.421875q-1.71875 1.3125 -2.8125 4.015625q-1.09375 2.6875 -1.203125 6.03125l0 1.0q0 4.515625 1.640625 7.84375q1.0 2.0 2.375 3.125l-0.453125 1.328125q-1.546875 -0.875 -2.96875 -2.90625q-2.765625 -4.0 -2.765625 -9.53125zm10.328125 -5.765625l0.078125 1.59375q1.453125 -1.828125 3.796875 -1.828125q4.015625 0 4.046875 4.546875l0 8.375l-2.15625 0l0 -8.390625q-0.015625 -1.375 -0.640625 -2.03125q-0.609375 -0.65625 -1.90625 -0.65625q-1.0625 0 -1.859375 0.5625q-0.796875 0.5625 -1.234375 1.484375l0 9.03125l-2.171875 0l0 -12.6875l2.046875 0zm16.195312 5.875q0 2.609375 -0.6875 5.015625q-0.671875 2.390625 -2.09375 4.421875q-1.40625 2.03125 -2.953125 2.890625l-0.453125 -1.328125q1.796875 -1.390625 2.890625 -4.296875q1.09375 -2.921875 1.125 -6.46875l0 -0.375q0 -2.453125 -0.515625 -4.5625q-0.515625 -2.125 -1.4375 -3.796875q-0.921875 -1.6875 -2.0625 -2.625l0.453125 -1.3125q1.546875 0.84375 2.9375 2.859375q1.40625 2.0 2.09375 4.421875q0.703125 2.40625 0.703125 5.15625z" fill-rule="nonzero"></path><path fill="#000000" fill-opacity="0.0" d="m654.06824 403.66403l96.12598 0l0 35.905518l-96.12598 0z" fill-rule="nonzero"></path><path fill="#000000" d="m678.1776 427.71967q0 2.515625 -0.84375 4.390625q-0.84375 1.859375 -2.390625 2.84375q-1.546875 0.984375 -3.609375 0.984375q-2.015625 0 -3.578125 -0.984375q-1.5625 -1.0 -2.421875 -2.828125q-0.859375 -1.84375 -0.875 -4.25l0 -1.234375q0 -2.453125 0.84375 -4.34375q0.859375 -1.890625 2.421875 -2.890625q1.5625 -1.0 3.578125 -1.0q2.0625 0 3.625 1.0q1.5625 0.984375 2.40625 2.859375q0.84375 1.875 0.84375 4.375l0 1.078125zm-2.234375 -1.09375q0 -3.046875 -1.21875 -4.65625q-1.21875 -1.625 -3.421875 -1.625q-2.125 0 -3.359375 1.625q-1.21875 1.609375 -1.25 4.5l0 1.25q0 2.9375 1.234375 4.625q1.234375 1.6875 3.40625 1.6875q2.171875 0 3.359375 -1.59375q1.203125 -1.59375 1.25 -4.546875l0 -1.265625zm5.1875 2.15625q0 -2.65625 0.703125 -5.09375q0.71875 -2.4375 2.125 -4.421875q1.40625 -2.0 2.90625 -2.8125l0.453125 1.421875q-1.71875 1.3125 -2.8125 4.015625q-1.09375 2.6875 -1.203125 6.03125l0 1.0q0 4.515625 1.640625 7.84375q1.0 2.0 2.375 3.125l-0.453125 1.328125q-1.546875 -0.875 -2.96875 -2.90625q-2.765625 -4.0 -2.765625 -9.53125zm10.328125 -5.765625l0.078125 1.59375q1.453125 -1.828125 3.796875 -1.828125q4.015625 0 4.046875 4.546875l0 8.375l-2.15625 0l0 -8.390625q-0.015625 -1.375 -0.640625 -2.03125q-0.609375 -0.65625 -1.90625 -0.65625q-1.0625 0 -1.859375 0.5625q-0.796875 0.5625 -1.234375 1.484375l0 9.03125l-2.171875 0l0 -12.6875l2.046875 0zm16.195312 5.875q0 2.609375 -0.6875 5.015625q-0.671875 2.390625 -2.09375 4.421875q-1.40625 2.03125 -2.953125 2.890625l-0.453125 -1.328125q1.796875 -1.390625 2.890625 -4.296875q1.09375 -2.921875 1.125 -6.46875l0 -0.375q0 -2.453125 -0.515625 -4.5625q-0.515625 -2.125 -1.4375 -3.796875q-0.921875 -1.6875 -2.0625 -2.625l0.453125 -1.3125q1.546875 0.84375 2.9375 2.859375q1.40625 2.0 2.09375 4.421875q0.703125 2.40625 0.703125 5.15625z" fill-rule="nonzero"></path><path fill="#000000" fill-opacity="0.0" d="m380.14304 618.4619l50.897644 0l0 53.322876l-50.897644 0z" fill-rule="nonzero"></path><path stroke="#000000" stroke-width="1.0" stroke-linejoin="round" stroke-linecap="butt" d="m380.14304 618.4619l50.897644 0l0 53.322876l-50.897644 0z" fill-rule="nonzero"></path><path fill="#000000" d="m407.9981 656.8434l-2.90625 0l0 -19.265625l-5.828125 2.140625l0 -2.625l8.28125 -3.109375l0.453125 0l0 22.859375z" fill-rule="nonzero"></path><path fill="#000000" fill-opacity="0.0" d="m431.04068 618.4619l50.897644 0l0 53.322876l-50.897644 0z" fill-rule="nonzero"></path><path stroke="#000000" stroke-width="1.0" stroke-linejoin="round" stroke-linecap="butt" d="m431.04068 618.4619l50.897644 0l0 53.322876l-50.897644 0z" fill-rule="nonzero"></path><path fill="#000000" d="m464.302 656.8434l-14.90625 0l0 -2.078125l7.875 -8.75q1.75 -1.984375 2.40625 -3.21875q0.671875 -1.25 0.671875 -2.578125q0 -1.78125 -1.078125 -2.921875q-1.078125 -1.140625 -2.875 -1.140625q-2.15625 0 -3.359375 1.234375q-1.1875 1.21875 -1.1875 3.40625l-2.890625 0q0 -3.140625 2.015625 -5.078125q2.03125 -1.9375 5.421875 -1.9375q3.171875 0 5.015625 1.671875q1.84375 1.65625 1.84375 4.421875q0 3.359375 -4.28125 8.0l-6.09375 6.609375l11.421875 0l0 2.359375z" fill-rule="nonzero"></path><path fill="#000000" fill-opacity="0.0" d="m481.93832 618.4619l50.897614 0l0 53.322876l-50.897614 0z" fill-rule="nonzero"></path><path stroke="#000000" stroke-width="1.0" stroke-linejoin="round" stroke-linecap="butt" d="m481.93832 618.4619l50.897614 0l0 53.322876l-50.897614 0z" fill-rule="nonzero"></path><path fill="#000000" d="m504.49652 644.06213l2.171875 0q2.046875 -0.03125 3.21875 -1.078125q1.171875 -1.046875 1.171875 -2.828125q0 -4.0 -3.984375 -4.0q-1.875 0 -3.0 1.078125q-1.109375 1.0625 -1.109375 2.828125l-2.890625 0q0 -2.703125 1.96875 -4.484375q1.984375 -1.796875 5.03125 -1.796875q3.21875 0 5.046875 1.703125q1.828125 1.703125 1.828125 4.734375q0 1.484375 -0.96875 2.875q-0.953125 1.390625 -2.609375 2.078125q1.875 0.59375 2.890625 1.96875q1.03125 1.375 1.03125 3.359375q0 3.0625 -2.0 4.859375q-2.0 1.796875 -5.203125 1.796875q-3.203125 0 -5.21875 -1.734375q-2.0 -1.734375 -2.0 -4.578125l2.90625 0q0 1.796875 1.171875 2.875q1.171875 1.078125 3.140625 1.078125q2.09375 0 3.203125 -1.09375q1.109375 -1.09375 1.109375 -3.140625q0 -1.984375 -1.21875 -3.046875q-1.21875 -1.0625 -3.515625 -1.09375l-2.171875 0l0 -2.359375z" fill-rule="nonzero"></path><path fill="#000000" fill-opacity="0.0" d="m532.83594 618.4619l50.897644 0l0 53.322876l-50.897644 0z" fill-rule="nonzero"></path><path stroke="#000000" stroke-width="1.0" stroke-linejoin="round" stroke-linecap="butt" d="m532.83594 618.4619l50.897644 0l0 53.322876l-50.897644 0z" fill-rule="nonzero"></path><path fill="#000000" d="m563.39417 649.20276l3.15625 0l0 2.359375l-3.15625 0l0 5.28125l-2.90625 0l0 -5.28125l-10.359375 0l0 -1.703125l10.1875 -15.765625l3.078125 0l0 15.109375zm-9.984375 0l7.078125 0l0 -11.15625l-0.34375 0.625l-6.734375 10.53125z" fill-rule="nonzero"></path><path fill="#000000" fill-opacity="0.0" d="m583.7336 618.4619l50.897644 0l0 53.322876l-50.897644 0z" fill-rule="nonzero"></path><path stroke="#000000" stroke-width="1.0" stroke-linejoin="round" stroke-linecap="butt" d="m583.7336 618.4619l50.897644 0l0 53.322876l-50.897644 0z" fill-rule="nonzero"></path><path fill="#000000" d="m603.4168 645.43713l1.15625 -11.34375l11.65625 0l0 2.671875l-9.203125 0l-0.6875 6.203125q1.671875 -0.984375 3.796875 -0.984375q3.109375 0 4.9375 2.0625q1.828125 2.046875 1.828125 5.546875q0 3.515625 -1.90625 5.546875q-1.890625 2.015625 -5.296875 2.015625q-3.015625 0 -4.921875 -1.671875q-1.90625 -1.671875 -2.171875 -4.625l2.734375 0q0.265625 1.953125 1.390625 2.953125q1.125 0.984375 2.96875 0.984375q2.015625 0 3.15625 -1.375q1.15625 -1.375 1.15625 -3.796875q0 -2.28125 -1.25 -3.65625q-1.234375 -1.390625 -3.296875 -1.390625q-1.890625 0 -2.96875 0.828125l-0.765625 0.625l-2.3125 -0.59375z" fill-rule="nonzero"></path><path fill="#000000" fill-opacity="0.0" d="m634.6312 618.4619l50.897644 0l0 53.322876l-50.897644 0z" fill-rule="nonzero"></path><path stroke="#000000" stroke-width="1.0" stroke-linejoin="round" stroke-linecap="butt" d="m634.6312 618.4619l50.897644 0l0 53.322876l-50.897644 0z" fill-rule="nonzero"></path><path fill="#000000" d="m664.3301 634.07776l0 2.453125l-0.53125 0q-3.375 0.0625 -5.375 2.0q-2.0 1.9375 -2.3125 5.453125q1.796875 -2.0625 4.90625 -2.0625q2.96875 0 4.734375 2.09375q1.78125 2.09375 1.78125 5.40625q0 3.515625 -1.921875 5.625q-1.90625 2.109375 -5.125 2.109375q-3.265625 0 -5.296875 -2.5q-2.03125 -2.515625 -2.03125 -6.46875l0 -1.109375q0 -6.28125 2.671875 -9.59375q2.6875 -3.328125 7.984375 -3.40625l0.515625 0zm-3.796875 10.25q-1.484375 0 -2.734375 0.890625q-1.25 0.890625 -1.734375 2.234375l0 1.0625q0 2.8125 1.265625 4.53125q1.265625 1.71875 3.15625 1.71875q1.953125 0 3.0625 -1.4375q1.125 -1.4375 1.125 -3.765625q0 -2.34375 -1.140625 -3.78125q-1.125 -1.453125 -3.0 -1.453125z" fill-rule="nonzero"></path><path fill="#000000" fill-opacity="0.0" d="m685.5289 618.4619l50.897644 0l0 53.322876l-50.897644 0z" fill-rule="nonzero"></path><path stroke="#000000" stroke-width="1.0" stroke-linejoin="round" stroke-linecap="butt" d="m685.5289 618.4619l50.897644 0l0 53.322876l-50.897644 0z" fill-rule="nonzero"></path><path fill="#000000" d="m718.5714 635.7184l-9.421875 21.125l-3.03125 0l9.390625 -20.375l-12.3125 0l0 -2.375l15.375 0l0 1.625z" fill-rule="nonzero"></path><path fill="#000000" fill-opacity="0.0" d="m603.1693 543.80054l0.03149414 55.748047" fill-rule="nonzero"></path><path stroke="#000000" stroke-width="1.0" stroke-linejoin="round" stroke-linecap="butt" d="m603.1693 543.80054l0.028076172 49.748047" fill-rule="evenodd"></path><path fill="#000000" stroke="#000000" stroke-width="1.0" stroke-linecap="butt" d="m601.54565 593.5495l1.6542969 4.5371704l1.6491699 -4.5390625z" fill-rule="evenodd"></path><path fill="#000000" fill-opacity="0.0" d="m704.96454 543.80054l0.03149414 55.748047" fill-rule="nonzero"></path><path stroke="#000000" stroke-width="1.0" stroke-linejoin="round" stroke-linecap="butt" d="m704.96454 543.80054l0.028137207 49.748047" fill-rule="evenodd"></path><path fill="#000000" stroke="#000000" stroke-width="1.0" stroke-linecap="butt" d="m703.34094 593.5495l1.6542969 4.5371704l1.6491699 -4.5390625z" fill-rule="evenodd"></path><path fill="#000000" fill-opacity="0.0" d="m784.3779 42.46194l0 0c22.465393 0 40.677185 3.0351791 40.677185 6.7792587l0 301.1029c0 3.7440796 18.211792 6.779236 40.677185 6.779236l0 0c-22.465393 0 -40.677185 3.0351868 -40.677185 6.7792664l0 301.10287c0 3.7440796 -18.211792 6.779297 -40.677185 6.779297z" fill-rule="nonzero"></path><path fill="#000000" fill-opacity="0.0" d="m784.3779 42.46194l0 0c22.465393 0 40.677185 3.0351791 40.677185 6.7792587l0 301.1029c0 3.7440796 18.211792 6.779236 40.677185 6.779236l0 0c-22.465393 0 -40.677185 3.0351868 -40.677185 6.7792664l0 301.10287c0 3.7440796 -18.211792 6.779297 -40.677185 6.779297" fill-rule="nonzero"></path><path stroke="#000000" stroke-width="1.0" stroke-linejoin="round" stroke-linecap="butt" d="m784.3779 42.46194l0 0c22.465393 0 40.677185 3.0351791 40.677185 6.7792587l0 301.1029c0 3.7440796 18.211792 6.779236 40.677185 6.779236l0 0c-22.465393 0 -40.677185 3.0351868 -40.677185 6.7792664l0 301.10287c0 3.7440796 -18.211792 6.779297 -40.677185 6.779297" fill-rule="nonzero"></path><path fill="#000000" fill-opacity="0.0" d="m865.7323 321.08136l134.33069 0l0 68.22049l-134.33069 0z" fill-rule="nonzero"></path><path fill="#000000" d="m899.9042 355.18448q0 4.171875 -1.40625 7.296875q-1.40625 3.109375 -3.984375 4.75q-2.578125 1.640625 -6.015625 1.640625q-3.359375 0 -5.953125 -1.640625q-2.59375 -1.65625 -4.03125 -4.71875q-1.4375 -3.0625 -1.46875 -7.078125l0 -2.046875q0 -4.109375 1.421875 -7.25q1.421875 -3.140625 4.03125 -4.8125q2.609375 -1.671875 5.96875 -1.671875q3.421875 0 6.015625 1.65625q2.609375 1.640625 4.015625 4.78125q1.40625 3.125 1.40625 7.296875l0 1.796875zm-3.71875 -1.84375q0 -5.0625 -2.03125 -7.765625q-2.03125 -2.703125 -5.6875 -2.703125q-3.5625 0 -5.609375 2.703125q-2.03125 2.703125 -2.09375 7.515625l0 2.09375q0 4.890625 2.0625 7.703125q2.0625 2.796875 5.671875 2.796875q3.640625 0 5.625 -2.640625q2.0 -2.65625 2.0625 -7.59375l0 -2.109375zm8.640625 3.59375q0 -4.40625 1.1875 -8.46875q1.1875 -4.0625 3.53125 -7.375q2.34375 -3.328125 4.859375 -4.703125l0.734375 2.390625q-2.84375 2.1875 -4.671875 6.6875q-1.828125 4.484375 -2.0 10.046875l-0.015625 1.65625q0 7.546875 2.75 13.09375q1.65625 3.3125 3.9375 5.1875l-0.734375 2.21875q-2.59375 -1.453125 -4.96875 -4.84375q-4.609375 -6.65625 -4.609375 -15.890625zm17.734375 11.546875l-3.609375 0l0 -30.0l3.609375 0l0 30.0zm4.9257812 -10.75q0 -4.9375 2.28125 -7.859375q2.296875 -2.921875 6.0625 -2.921875q3.859375 0 6.03125 2.734375l0.171875 -2.34375l3.3125 0l0 20.625q0 4.109375 -2.4375 6.46875q-2.4375 2.375 -6.53125 2.375q-2.28125 0 -4.46875 -0.984375q-2.1875 -0.96875 -3.34375 -2.671875l1.875 -2.171875q2.328125 2.875 5.6875 2.875q2.625 0 4.09375 -1.484375q1.484375 -1.484375 1.484375 -4.1875l0 -1.8125q-2.171875 2.5 -5.921875 2.5q-3.703125 0 -6.0 -2.984375q-2.296875 -3.0 -2.296875 -8.15625zm3.640625 0.421875q0 3.5625 1.453125 5.609375q1.46875 2.046875 4.109375 2.046875q3.421875 0 5.015625 -3.109375l0 -9.65625q-1.65625 -3.015625 -4.984375 -3.015625q-2.625 0 -4.109375 2.046875q-1.484375 2.046875 -1.484375 6.078125zm23.082031 -10.8125l0.109375 2.65625q2.421875 -3.046875 6.328125 -3.046875q6.703125 0 6.765625 7.5625l0 13.96875l-3.609375 0l0 -13.984375q-0.03125 -2.28125 -1.0625 -3.375q-1.015625 -1.09375 -3.1875 -1.09375q-1.75 0 -3.078125 0.9375q-1.328125 0.9375 -2.078125 2.453125l0 15.0625l-3.609375 0l0 -21.140625l3.421875 0zm26.992188 9.796875q0 4.34375 -1.140625 8.34375q-1.140625 4.0 -3.5 7.375q-2.359375 3.375 -4.9375 4.8125l-0.75 -2.21875q3.0 -2.296875 4.828125 -7.15625q1.828125 -4.859375 1.859375 -10.765625l0 -0.625q0 -4.109375 -0.859375 -7.625q-0.859375 -3.53125 -2.390625 -6.328125q-1.53125 -2.796875 -3.4375 -4.359375l0.75 -2.203125q2.578125 1.421875 4.90625 4.765625q2.34375 3.34375 3.5 7.375q1.171875 4.015625 1.171875 8.609375z" fill-rule="nonzero"></path></g></svg>

